<svg viewBox="0 0 116.41212 118.88" xmlns="http://www.w3.org/2000/svg" data-name="Camada 2" id="Camada_2" style="max-height: 500px" width="116.41212" height="118.88">
  <defs>
    <style>
      .cls-1 {
        fill: #f6f8ed;
      }

      .cls-2 {
        fill: #00313c;
      }

      .cls-3 {
        fill: #ff7631;
      }
    </style>
  </defs>
  <g data-name="Camada 1" id="Camada_1-2">
    <g>
      <g>
        <path d="M175.11,84.63c-1.25,0-2.19-.17-2.82-.52s-1.19-1.02-1.67-2.03c-.98-2.27-2-4.88-3.08-7.84-1.08-2.96-1.86-5.1-2.35-6.43-3.2-8.69-5.78-15.22-7.73-19.56-.77-1.7-1.5-2.82-2.19-3.36-.7-.53-1.88-.9-3.55-1.09-1.53-.44-2.3-1.13-2.3-2.08,0-.88.4-1.46,1.2-1.75.8-.28,2.21-.43,4.23-.43l7.73.09,7.52-.09c2.16,0,3.58.16,4.28.47.7.32,1.04.85,1.04,1.61,0,1.01-.73,1.7-2.19,2.08-2.23.13-3.81.39-4.75.8-.94.41-1.41,1.02-1.41,1.84,0,.5.14,1.04.42,1.61,1.11,2.84,2.78,7.28,5.01,13.33,2.16,5.92,3.93,10.65,5.33,14.18.21.5.49.76.84.76.28,0,.63-.22,1.04-.66,7.59-7.56,11.49-14.37,11.7-20.41.14-2.2-.07-3.97-.63-5.29-.56-1.32-1.64-2.42-3.24-3.31-1.53-1.32-2.3-2.77-2.3-4.35,0-1.26.59-2.21,1.78-2.83.97-.44,1.88-.66,2.72-.66,1.18,0,2.44.44,3.76,1.32.97.76,1.67,1.54,2.09,2.36,1.46,2.21,2.19,5.17,2.19,8.88,0,4.54-1.53,9.36-4.6,14.46s-7,10.21-11.8,15.31c-1.12,1.32-2.07,2.25-2.87,2.79-.8.53-1.76.8-2.87.8h-.52Z" class="cls-2"/>
        <path d="M201.22,84.2c-.91-.35-1.36-.87-1.36-1.56,0-.95.56-1.57,1.67-1.89,1.95-.25,3.34-.63,4.18-1.13.84-.5,1.34-1.17,1.51-1.98.17-.82.26-2.21.26-4.16v-24.48c0-1.26-.14-2.17-.42-2.74-.28-.57-.91-.85-1.88-.85-.84,0-1.6.03-2.3.09-.7.06-1.29.09-1.78.09-.77,0-1.31-.08-1.62-.24-.31-.16-.47-.49-.47-.99,0-.57.26-1.02.78-1.37.52-.35,1.27-.68,2.25-.99l3.03-.85c4.67-1.32,7.59-1.99,8.77-1.99,1.04,0,1.79.19,2.25.57.45.38.68,1.04.68,1.98v31.75c0,1.89.1,3.25.31,4.06.21.82.73,1.48,1.57,1.98.84.51,2.23.91,4.18,1.23,1.25.32,1.88.94,1.88,1.89,0,.69-.4,1.21-1.2,1.56-.8.35-2.42.52-4.86.52l-6.27-.09-6.27.09c-2.37,0-4.01-.17-4.91-.52ZM205.29,30.14c-1.25-.91-1.88-2.09-1.88-3.54s.63-2.6,1.88-3.45c1.25-.85,2.92-1.28,5.01-1.28s3.64.43,4.86,1.28c1.22.85,1.83,2,1.83,3.45s-.61,2.63-1.83,3.54c-1.22.91-2.84,1.37-4.86,1.37s-3.76-.46-5.01-1.37Z" class="cls-2"/>
        <path d="M232.71,82.5c-2.96-1.92-5.24-4.63-6.84-8.13-1.6-3.5-2.4-7.51-2.4-12.05s.9-8.41,2.72-12c1.81-3.59,4.39-6.41,7.73-8.46,3.34-2.05,7.21-3.07,11.59-3.07,3.34,0,5.97.49,7.89,1.46,1.91.98,3.41,1.98,4.49,3.02,1.08,1.04,1.72,1.56,1.93,1.56.42,0,.68-.43.78-1.28s.16-2.41.16-4.68v-11.44c0-1.32-.17-2.25-.52-2.79-.35-.53-1.12-.8-2.3-.8-.7,0-1.36.03-1.99.09-.63.06-1.18.09-1.67.09-.7,0-1.2-.08-1.51-.24-.31-.16-.47-.46-.47-.9,0-1.01,1.01-1.83,3.03-2.46,2.09-.57,3.38-.91,3.86-1.04,1.6-.44,3.13-.85,4.6-1.23,1.46-.38,2.58-.57,3.34-.57.97,0,1.69.19,2.14.57.45.38.68,1.04.68,1.98v54.91c0,1.26.17,2.17.52,2.74.35.57,1.04.85,2.09.85.83,0,1.6-.03,2.3-.09.7-.06,1.29-.09,1.78-.09.63,0,1.08.08,1.36.24.28.16.45.42.52.8,0,.69-.26,1.21-.78,1.56-.52.35-1.27.68-2.25.99-1.39.32-3.07.76-5.01,1.32-3.48,1.01-5.78,1.51-6.89,1.51-.98,0-1.69-.19-2.14-.57-.45-.38-.68-1.04-.68-1.98v-4.92c-.07-1.51-.21-2.27-.42-2.27-.07,0-.71.9-1.93,2.69-1.22,1.8-3.15,3.5-5.8,5.1-2.65,1.61-5.89,2.41-9.71,2.41s-7.23-.96-10.18-2.88ZM254.18,77.63c2.02-1.26,3.62-3.01,4.8-5.25,1.18-2.24,1.78-4.74,1.78-7.51v-3.12c0-5.92-1.2-10.55-3.6-13.89-2.4-3.34-5.83-5.01-10.29-5.01-2.44,0-4.7.63-6.79,1.89-2.09,1.26-3.78,3.13-5.07,5.62-1.29,2.49-1.93,5.47-1.93,8.93,0,6.3,1.29,11.25,3.87,14.84,2.58,3.59,6.09,5.39,10.55,5.39,2.44,0,4.67-.63,6.69-1.89Z" class="cls-2"/>
        <path d="M283.37,81.88c-2.61-2.33-3.92-5.39-3.92-9.17,0-4.1,1.9-7.42,5.69-9.97,3.79-2.55,9.21-3.92,16.24-4.11,2.85-.06,4.94-.19,6.27-.38,1.32-.19,2.19-.49,2.61-.9.42-.41.56-1.02.42-1.84l-.31-2.36c-.49-3.4-1.57-5.95-3.24-7.66-1.67-1.7-4.01-2.55-7-2.55s-5.64.77-7.52,2.32c-1.88,1.54-2.79,3.7-2.72,6.47-.14,1.2-.63,2.11-1.46,2.74-.83.63-1.92.95-3.24.95-.98,0-1.83-.31-2.56-.95-.73-.63-1.1-1.51-1.1-2.65,0-2.39.9-4.6,2.72-6.62,1.81-2.02,4.28-3.61,7.42-4.77,3.13-1.17,6.62-1.75,10.45-1.75,5.43,0,9.56,1.28,12.38,3.83s4.54,6.32,5.17,11.29l2.51,18.24c.35,2.71.83,4.55,1.46,5.53.63.98,1.46,1.46,2.51,1.46.7,0,1.24-.14,1.62-.43.38-.28.8-.72,1.25-1.32.45-.6.85-.9,1.2-.9.97,0,1.46.6,1.46,1.8,0,.94-.35,1.95-1.04,3.02-.7,1.07-1.69,1.97-2.98,2.69-1.29.72-2.73,1.09-4.33,1.09-2.51,0-4.41-.63-5.69-1.89-1.29-1.26-2.25-3.15-2.87-5.67-.28-.57-.52-.85-.73-.85s-.96.8-2.25,2.41c-1.29,1.61-3.27,3.07-5.95,4.39-2.68,1.32-6.21,1.99-10.6,1.99-5.29,0-9.24-1.17-11.86-3.5ZM308.49,76.88c2.58-2.33,3.87-5.2,3.87-8.6,0-.76-.04-1.32-.1-1.7l-.21-1.89c-.14-.88-.44-1.5-.89-1.84-.45-.35-1.18-.57-2.19-.66-1.01-.09-2.84-.14-5.48-.14-5.01,0-8.71.84-11.07,2.5-2.37,1.67-3.55,3.86-3.55,6.57,0,2.96.85,5.25,2.56,6.85,1.71,1.61,4.26,2.41,7.68,2.41,3.69,0,6.82-1.17,9.4-3.5Z" class="cls-2"/>
        <path d="M324.84,100.64c-.52-.41-.78-.96-.78-1.65,0-.13.07-.44.21-.95l1.04-3.5c1.18-3.59,2.09-6.8,2.72-9.64l7.83-33.36c.14-1.01.21-1.67.21-1.98,0-1.51-.63-2.52-1.88-3.02-.56-.19-1.24-.38-2.04-.57-.8-.19-1.39-.41-1.78-.66-.38-.25-.58-.6-.58-1.04,0-.88.42-1.56,1.25-2.03.84-.47,2.09-.96,3.76-1.46,7.59-1.89,12.74-2.83,15.46-2.83,1.25,0,2.14.16,2.66.47.52.32.78.88.78,1.7,0,.44-.04.82-.1,1.13l-1.25,5.48c-.35,1.26-.38,1.89-.1,1.89.21,0,.49-.2.83-.61.35-.41.59-.68.73-.8,2.3-2.9,4.89-5.26,7.78-7.09,2.89-1.83,6.25-2.74,10.08-2.74,4.04,0,7.19,1.29,9.45,3.88,2.26,2.58,3.39,6.3,3.39,11.15s-1.13,10.13-3.39,15.26c-2.26,5.14-5.47,9.39-9.61,12.76-4.14,3.37-8.93,5.06-14.36,5.06-4.18,0-7.66-1.07-10.45-3.21-.63-.57-1.22-.85-1.78-.85-.49,0-.8.28-.94.85-1.25,5.67-2.19,10.27-2.82,13.8-.14,1.39-.57,2.42-1.31,3.12-.73.69-2.05,1.2-3.97,1.51-1.92.31-4.86.5-8.83.57-.98,0-1.72-.21-2.25-.61ZM361.03,75.41c2.23-2.61,3.99-5.73,5.27-9.36,1.29-3.62,1.93-6.72,1.93-9.31,0-5.35-1.88-8.03-5.64-8.03-3.07,0-5.97,1.51-8.72,4.54-2.75,3.02-4.58,6.43-5.48,10.21-.07.32-.37,1.53-.89,3.64-.52,2.11-.78,3.83-.78,5.15,0,2.14.63,3.86,1.88,5.15,1.25,1.29,2.92,1.94,5.01,1.94,2.72,0,5.19-1.31,7.42-3.92Z" class="cls-2"/>
        <path d="M391.06,80.56c-3.59-3.28-5.38-7.59-5.38-12.95s1.38-10.08,4.13-14.74c2.75-4.66,6.54-8.41,11.39-11.25,4.84-2.83,10.22-4.25,16.14-4.25,4.18,0,7.61,1.03,10.29,3.07,2.68,2.05,4.02,4.62,4.02,7.7s-.8,5.83-2.4,8.03c-1.6,2.21-4.42,4.06-8.46,5.58-4.04,1.51-9.65,2.68-16.82,3.5-.63.06-1.06.24-1.31.52-.25.28-.3.83-.16,1.65.35,2.46,1.32,4.54,2.92,6.24,1.6,1.7,4.14,2.55,7.63,2.55,2.16,0,4.18-.47,6.06-1.42,1.88-.95,3.76-2.24,5.64-3.88.76-.57,1.5-.85,2.19-.85.56,0,1.01.16,1.36.47.35.32.52.76.52,1.32,0,.44-.14.91-.42,1.42-1.95,3.53-4.86,6.44-8.72,8.74-3.87,2.3-8.44,3.45-13.74,3.45-6.34,0-11.3-1.64-14.88-4.91ZM415.82,56.32c2.96-1.54,4.47-3.98,4.54-7.32,0-3.59-1.64-5.39-4.91-5.39-2.16,0-4.2.82-6.11,2.46-1.92,1.64-3.47,3.67-4.65,6.1-1.19,2.43-1.88,4.65-2.09,6.66v.28c0,.69.24,1.04.73,1.04.21,0,.52-.06.94-.19,4.73-.88,8.58-2.09,11.54-3.64Z" class="cls-2"/>
        <path d="M433.11,74.89c0-1.2.24-2.96.73-5.29l5.33-22.78c.07-.19.1-.44.1-.76,0-.95-.63-1.42-1.88-1.42h-1.67c-.77,0-1.34-.2-1.72-.61-.38-.41-.57-.93-.57-1.56,0-1.13.82-2.49,2.46-4.06,1.63-1.57,3.99-3.46,7.05-5.67,6.68-4.91,11.39-7.37,14.1-7.37.7,0,1.2.13,1.51.38.31.25.47.63.47,1.13s-.1,1.13-.31,1.89l-1.15,5.48c-.42,1.58-.63,2.65-.63,3.21,0,.44.1.73.31.85.21.13.59.19,1.15.19h12.64c.77,0,1.32.06,1.67.19.35.13.52.44.52.95,0,1.58-.49,2.8-1.46,3.69-.98.88-2.16,1.32-3.55,1.32h-10.55c-1.81,0-2.89.76-3.24,2.27l-4.81,20.7c-.21,1.01-.31,1.95-.31,2.83,0,1.76.47,3.12,1.41,4.06.94.95,2.31,1.42,4.13,1.42,1.39,0,2.96-.31,4.7-.95,1.74-.63,3.34-1.61,4.8-2.93.77-.63,1.5-.95,2.19-.95.49,0,.87.14,1.15.43.28.28.42.65.42,1.09,0,.38-.07.69-.21.95-2.02,3.91-4.82,6.85-8.41,8.84-3.59,1.98-7.82,2.98-12.69,2.98-9.12,0-13.68-3.5-13.68-10.49Z" class="cls-2"/>
      </g>
      <g>
        <rect ry="17.73" rx="17.73" height="106.69" width="102.25" y="3.99" x="7.93" class="cls-1"/>
        <path d="M83.61,8c13.69,0,24.79,11.1,24.79,24.79v50.81c0,13.69-11.1,24.79-24.79,24.79h-50.81c-13.69,0-24.79-11.1-24.79-24.79v-50.81c0-13.69,11.1-24.79,24.79-24.79h50.81M83.61,0h-50.81C14.71,0,0,14.71,0,32.79v50.81c0,18.08,14.71,32.79,32.79,32.79h50.81c18.08,0,32.79-14.71,32.79-32.79v-50.81C116.4,14.71,101.69,0,83.61,0h0Z" class="cls-2"/>
        <path d="M72.53,91.8l-.81,11.68c-.41,7.04-5.89,12.72-12.9,12.89-8.36.2-15.1-7.05-14.62-15.19l-.33-9.8,3.15-1.86c4.01-2.37,7.16-5.95,8.99-10.23l1.41-3.3,2.94,5.35c1.68,3.06,4.14,5.62,7.13,7.43l5.04,3.04Z" class="cls-3"/>
        <path d="M58.2,64.36c-1.83,0-3.67-.65-5.13-1.95l-7.42-6.57c-3.2-2.83-3.5-7.73-.66-10.93,2.83-3.2,7.73-3.5,10.93-.66l2.29,2.03,2.29-2.03c3.2-2.84,8.1-2.54,10.93.66,2.83,3.2,2.54,8.09-.66,10.93l-7.42,6.57c-1.46,1.3-3.3,1.95-5.13,1.95Z" class="cls-3"/>
        <path d="M94.59,69.58h0c-1.38,0-2.5,1.12-2.5,2.49-.02,8.6-7.02,15.65-15.6,15.7h-.09c-4.12,0-8.03-1.62-11-4.57-.87-.86-1.62-1.82-2.25-2.83-.02-.03-.03-.06-.05-.09l-1.3-2.57c-.42-1.06-.71-2.17-.88-3.3v-7.92c1.5-.41,2.9-1.16,4.09-2.21l7.42-6.57c4.23-3.74,4.62-10.23.88-14.46-1.81-2.05-4.32-3.27-7.05-3.43-2.73-.16-5.37.74-7.41,2.56l-.63.56-.63-.56c-4.23-3.74-10.71-3.35-14.46.88-3.74,4.23-3.35,10.71.88,14.46l7.42,6.57c1.19,1.05,2.59,1.8,4.09,2.21v7.92c-.12.78-.28,1.55-.51,2.29l-.68,1.45c-1.13,2.42-2.72,4.53-4.68,6.27-2.64,2.07-5.94,3.32-9.52,3.35h-.09c-4.12,0-8.03-1.62-11-4.57-3.01-2.99-4.68-6.94-4.69-11.12,0-1.38-1.12-2.49-2.5-2.49h0c-1.38,0-2.5,1.13-2.49,2.51.01,5.53,2.21,10.73,6.17,14.66,3.92,3.89,9.07,6.02,14.52,6.02h.13c.47,0,.93-.05,1.4-.08v7.91c-.38,4.59,1.2,9.21,4.35,12.7,3.07,3.4,7.37,5.41,11.86,5.56.13,0,.25,0,.38,0,8.25.08,15.05-6.25,15.83-14.69l1.18-11.47c.42.03.83.06,1.25.06h.13c11.31-.07,20.53-9.35,20.56-20.68,0-1.38-1.11-2.5-2.49-2.51ZM47.3,53.97c-2.16-1.92-2.37-5.24-.45-7.4,1.03-1.17,2.48-1.76,3.93-1.76,1.24,0,2.48.43,3.47,1.31l2.29,2.03c.95.84,2.37.84,3.31,0l2.29-2.03c1.05-.93,2.39-1.4,3.79-1.31,1.4.08,2.68.71,3.61,1.76,1.92,2.16,1.71,5.48-.45,7.4l-7.42,6.57c-.96.85-2.19,1.32-3.47,1.32s-2.52-.47-3.48-1.32l-7.42-6.57ZM68.98,103.7c-.54,5.86-5.19,10.23-10.81,10.18-3.27-.03-6.32-1.43-8.58-3.92-2.25-2.49-3.37-5.78-3.07-9.01,0-.08,0-.15.01-.23v-8.33s1.9-1.04,1.9-1.04c1.62-.89,3.11-1.94,4.47-3.14.93-.75,1.79-1.59,2.59-2.48v14.54c0,1.49,1.21,2.7,2.7,2.7h0c1.49,0,2.7-1.21,2.7-2.7v-14.13c1.53,1.97,3.38,3.68,5.48,5.04l3.65,2.37-1.05,10.15Z" class="cls-2"/>
      </g>
    </g>
  </g>
</svg>